<?xml version="1.0" encoding="utf-8"?>
<!-- Generator: Adobe Illustrator 19.0.0, SVG Export Plug-In . SVG Version: 6.00 Build 0)  -->
<svg version="1.1" xmlns="http://www.w3.org/2000/svg" xmlns:xlink="http://www.w3.org/1999/xlink" x="0px" y="0px" width="100px"
	 height="19px" viewBox="0 0 100 19" style="enable-background:new 0 0 100 19;" xml:space="preserve">
<style type="text/css">
	.st0{fill:#E21F26;}
	.st1{fill:#B9B9B9;}
</style>
<g id="Layer_1">
	<polygon id="XMLID_2_" class="st0" points="10,0 12.6,7 20,7.3 14.2,11.9 16.2,19 10,14.9 3.8,19 5.8,11.9 0,7.3 7.4,7 	"/>
	<polygon id="XMLID_3_" class="st0" points="30,0 32.6,7 40,7.3 34.2,11.9 36.2,19 30,14.9 23.8,19 25.8,11.9 20,7.3 27.4,7 	"/>
	<polygon id="XMLID_4_" class="st0" points="50,0 52.6,7 60,7.3 54.2,11.9 56.2,19 50,14.9 43.8,19 45.8,11.9 40,7.3 47.4,7 	"/>
	<polygon id="XMLID_5_" class="st0" points="70,0 72.6,7 80,7.3 74.2,11.9 76.2,19 70,14.9 63.8,19 65.8,11.9 60,7.3 67.4,7 	"/>
</g>
<g id="Layer_2">
	<g id="XMLID_20_">
		<polygon id="XMLID_21_" class="st0" points="90,0 87.4,7 80,7.3 85.8,11.9 83.8,19 90,14.9 92.6,16.6 92.6,6.9 		"/>
		<polygon id="XMLID_22_" class="st1" points="103.8,-14.3 103.8,6.9 103.8,7 111.2,7.3 105.4,11.9 107.4,19 103.8,16.6 103.8,31.8 
			117.1,31.8 117.1,-14.3 		"/>
		<polygon id="XMLID_23_" class="st1" points="94.2,11.9 100,7.3 92.6,7 92.6,6.9 92.6,16.6 96.2,19 		"/>
	</g>
	<g id="XMLID_6_">
	</g>
	<g id="XMLID_19_">
	</g>
	<g id="XMLID_24_">
	</g>
	<g id="XMLID_25_">
	</g>
	<g id="XMLID_26_">
	</g>
	<g id="XMLID_27_">
	</g>
</g>
</svg>
